<svg xmlns="http://www.w3.org/2000/svg" version="1.1" width="100" height="100" style="border: solid 1px red;" preserveAspectRatio="none" onload="init(evt)" viewBox="0 0 100 100">
  <g>
    <animateTransform attributeName="transform" type="rotate" dur="2.5s" repeatCount="indefinite" from="0 50 50" to="360 50 50"/>
    <path fill="#332B55" d="M26.55 18.44 L 29.42 24.37 L 35.64 22.2 L 33.47 28.43 L 39.4 31.3 L 33.47 34.17 L 35.64 40.39 L 29.42 38.22 L 26.55 44.15 L 23.67 38.22 L 17.45 40.39 L 19.62 34.17 L 13.69 31.3 L 19.62 28.43 L 17.45 22.2 L 23.67 24.37 Z">
      <animateTransform attributeName="transform" type="rotate" dur="1.5s" repeatCount="indefinite" from="0 26.55 31.3" to="-360 26.55 31.3"/>
    </path>
  </g>
  <g>
    <animateTransform attributeName="transform" type="rotate" dur="2.5s" repeatCount="indefinite" from="0 50 50" to="360 50 50"/>
    <polygon fill="#2B4855" points="20.75,43.82 23.62,49.75 29.84,47.58 27.68,53.81 33.61,56.68 27.68,59.55 29.84,65.77 23.62,63.6 20.75,69.53 17.88,63.6 11.66,65.77 13.82,59.55 7.9,56.68 13.82,53.81 11.66,47.58 17.88,49.75">
      <animateTransform attributeName="transform" type="rotate" dur="1.5s" repeatCount="indefinite" from="0 20.75 56.68" to="-360 20.75 56.68"/>
    </polygon>
  </g>
  <g>
    <animateTransform attributeName="transform" type="rotate" dur="2.5s" repeatCount="indefinite" from="0 50 50" to="360 50 50"/>
    <polygon fill="#2B553F" points="36.98,64.17 39.85,70.1 46.07,67.94 43.91,74.16 49.84,77.03 43.91,79.9 46.07,86.12 39.85,83.96 36.98,89.89 34.11,83.96 27.89,86.12 30.05,79.9 24.13,77.03 30.05,74.16 27.89,67.94 34.11,70.1">
      <animateTransform attributeName="transform" type="rotate" dur="1.5s" repeatCount="indefinite" from="0 36.98 77.03" to="-360 36.98 77.03"/>
    </polygon>
  </g>
  <g>
    <animateTransform attributeName="transform" type="rotate" dur="2.5s" repeatCount="indefinite" from="0 50 50" to="360 50 50"/>
    <polygon fill="#3C552B" points="63.02,64.17 65.89,70.1 72.11,67.94 69.95,74.16 75.87,77.03 69.95,79.9 72.11,86.12 65.89,83.96 63.02,89.89 60.15,83.96 53.93,86.12 56.09,79.9 50.16,77.03 56.09,74.16 53.93,67.94 60.15,70.1">
      <animateTransform attributeName="transform" type="rotate" dur="1.5s" repeatCount="indefinite" from="0 63.02 77.03" to="-360 63.02 77.03"/>
    </polygon>
  </g>
  <g>
    <animateTransform attributeName="transform" type="rotate" dur="2.5s" repeatCount="indefinite" from="0 50 50" to="360 50 50"/>
    <polygon fill="#554B2B" points="79.25,43.82 82.12,49.75 88.34,47.58 86.18,53.81 92.1,56.68 86.18,59.55 88.34,65.77 82.12,63.6 79.25,69.53 76.38,63.6 70.16,65.77 72.32,59.55 66.39,56.68 72.32,53.81 70.16,47.58 76.38,49.75">
      <animateTransform attributeName="transform" type="rotate" dur="1.5s" repeatCount="indefinite" from="0 79.25 56.68" to="-360 79.25 56.68"/>
    </polygon>
  </g>
  <g>
    <animateTransform attributeName="transform" type="rotate" dur="2.5s" repeatCount="indefinite" from="0 50 50" to="360 50 50"/>
    <polygon fill="#552B30" points="73.45,18.44 76.33,24.37 82.55,22.2 80.38,28.43 86.31,31.3 80.38,34.17 82.55,40.39 76.33,38.22 73.45,44.15 70.58,38.22 64.36,40.39 66.53,34.17 60.6,31.3 66.53,28.43 64.36,22.2 70.58,24.37">
      <animateTransform attributeName="transform" type="rotate" dur="1.5s" repeatCount="indefinite" from="0 73.45 31.3" to="-360 73.45 31.3"/>
    </polygon>
  </g>
  <g>
    <animateTransform attributeName="transform" type="rotate" dur="2.5s" repeatCount="indefinite" from="0 50 50" to="360 50 50"/>
    <polygon fill="#552B53" points="50,7.14 52.87,13.07 59.09,10.91 56.93,17.13 62.86,20 56.93,22.87 59.09,29.09 52.87,26.93 50,32.86 47.13,26.93 40.91,29.09 43.07,22.87 37.14,20 43.07,17.13 40.91,10.91 47.13,13.07">
      <animateTransform attributeName="transform" type="rotate" dur="1.5s" repeatCount="indefinite" from="0 50 20" to="-360 50 20"/>
    </polygon>
  </g>
</svg>